<svg width="297" height="297" viewBox="0 0 297 297" fill="none" xmlns="http://www.w3.org/2000/svg">
<path d="M71.28 211.22L76.1092 208.435C78.8055 206.234 80.8577 203.347 82.0492 200.077C83.5402 195.967 83.3323 192.842 82.2631 191.274C80.9503 189.343 77.5467 189.682 77.4101 193.745C77.125 201.752 74.7905 207.306 71.28 211.22Z" fill="#FFE581"/>
<path opacity="0.2" d="M71.28 211.22L76.1092 208.435C78.8055 206.234 80.8577 203.347 82.0492 200.077C83.5402 195.967 83.3323 192.842 82.2631 191.274C80.9503 189.343 77.5467 189.682 77.4101 193.745C77.125 201.752 74.7905 207.306 71.28 211.22Z" fill="black"/>
<path d="M71.28 211.517C71.2171 211.517 71.1561 211.496 71.1057 211.458C71.0554 211.421 71.0183 211.368 70.9998 211.308C70.9813 211.248 70.9824 211.183 71.0028 211.124C71.0233 211.064 71.0621 211.013 71.1137 210.977C82.2809 203.255 80.1187 192.486 80.095 192.379C80.0868 192.34 80.0863 192.3 80.0937 192.26C80.1011 192.221 80.1161 192.184 80.1378 192.15C80.1596 192.117 80.1878 192.088 80.2207 192.066C80.2536 192.043 80.2906 192.028 80.3296 192.019C80.3686 192.011 80.4088 192.011 80.448 192.018C80.4872 192.025 80.5245 192.04 80.5579 192.062C80.5912 192.084 80.62 192.112 80.6425 192.145C80.665 192.178 80.6808 192.215 80.689 192.254C80.689 192.367 82.9699 203.504 71.4701 211.464C71.4143 211.502 71.3475 211.521 71.28 211.517Z" fill="white"/>
<path d="M61.6037 216.81C61.6037 216.81 59.9227 215.444 60.3266 213.591C60.7306 211.737 61.8176 210.407 59.9584 208.019C58.0991 205.631 57.5824 202.447 59.8039 200.724C61.4968 199.388 64.1401 201.277 65.0905 197.754C65.7914 195.177 65.5538 189.468 68.8387 187.567C72.1235 185.667 74.1847 188.53 73.6679 192.403C73.2164 195.866 72.5749 199.198 73.0739 200.125C74.0362 201.907 75.6815 201.663 75.6043 204.918C75.539 207.948 72.67 210.454 72.67 210.454L61.6037 216.81Z" fill="#FFE581"/>
<path d="M67.122 213.905C67.0494 213.905 66.9794 213.878 66.9249 213.83C66.8704 213.782 66.835 213.716 66.825 213.644C65.9756 206.605 68.013 194.452 69.6762 190.84C69.6902 190.8 69.7126 190.764 69.742 190.733C69.7713 190.702 69.8069 190.678 69.8463 190.663C69.8857 190.647 69.928 190.64 69.9704 190.642C70.0128 190.644 70.0542 190.655 70.092 190.674C70.1275 190.69 70.1593 190.713 70.1858 190.741C70.2123 190.77 70.2327 190.803 70.246 190.84C70.2593 190.876 70.2651 190.915 70.2632 190.954C70.2612 190.993 70.2515 191.031 70.2346 191.066C68.5892 194.63 66.623 206.819 67.4368 213.549C67.4452 213.627 67.4224 213.705 67.3734 213.766C67.3245 213.827 67.2533 213.867 67.1754 213.876L67.122 213.905Z" fill="white"/>
<path d="M66.9616 208.423C66.9162 208.425 66.871 208.415 66.8309 208.393C64.7698 207.389 63.463 203.807 63.4095 203.641C63.3949 203.604 63.3879 203.565 63.3889 203.525C63.3899 203.485 63.3988 203.446 63.4151 203.41C63.4315 203.374 63.4549 203.341 63.4841 203.314C63.5132 203.287 63.5475 203.266 63.5848 203.253C63.6221 203.239 63.6618 203.233 63.7015 203.236C63.7411 203.238 63.78 203.248 63.8157 203.265C63.8514 203.282 63.8833 203.307 63.9094 203.337C63.9355 203.367 63.9554 203.401 63.9679 203.439C63.9679 203.475 65.245 206.944 67.0923 207.841C67.1529 207.87 67.2017 207.919 67.2308 207.98C67.2598 208.041 67.2674 208.109 67.2522 208.175C67.237 208.241 67.2 208.299 67.1472 208.341C67.0944 208.383 67.0289 208.405 66.9616 208.405V208.423Z" fill="white"/>
<path d="M66.926 210.799C66.8665 210.799 66.8083 210.781 66.7595 210.747C66.7106 210.713 66.6734 210.664 66.6527 210.609C66.6232 210.536 66.6234 210.455 66.6535 210.383C66.6835 210.31 66.7409 210.253 66.8131 210.223C70.2821 208.833 72.4442 204.704 72.468 204.657C72.5042 204.587 72.5668 204.534 72.642 204.51C72.7172 204.486 72.7988 204.493 72.8689 204.529C72.939 204.565 72.9919 204.628 73.0158 204.703C73.0398 204.778 73.0329 204.86 72.9966 204.93C72.9016 205.108 70.7097 209.302 67.0566 210.775C67.0159 210.794 66.9709 210.802 66.926 210.799Z" fill="white"/>
<path d="M188.179 178.842C188.179 178.842 185.583 174.636 185.328 170.068C185.073 165.5 186.076 163.599 187.455 163.053C188.833 162.507 188.94 164.188 189.646 165.18C190.353 166.171 191.797 165.607 192.331 162.512C192.866 159.418 194.814 154.196 198.865 153.181C203.32 152.076 200.932 157.303 199.81 159.34C198.687 161.378 197.82 164.158 198.556 164.912C199.293 165.667 200.439 164.271 201.526 165.566C202.851 167.128 198.735 172.753 196.37 174.113L188.179 178.842Z" fill="#FFE581"/>
<path d="M191.737 177.077C191.698 177.076 191.66 177.067 191.625 177.05C191.589 177.034 191.557 177.011 191.531 176.982C191.504 176.953 191.484 176.92 191.47 176.883C191.457 176.846 191.451 176.807 191.452 176.768C191.854 169.42 194.146 162.301 198.105 156.097C198.127 156.065 198.156 156.038 198.189 156.017C198.223 155.996 198.26 155.982 198.299 155.976C198.338 155.97 198.377 155.971 198.416 155.981C198.454 155.991 198.489 156.008 198.521 156.032C198.583 156.078 198.625 156.147 198.637 156.224C198.649 156.3 198.631 156.378 198.586 156.442C194.698 162.554 192.448 169.565 192.052 176.798C192.05 176.837 192.04 176.875 192.023 176.911C192.006 176.946 191.982 176.977 191.953 177.003C191.923 177.029 191.889 177.049 191.852 177.062C191.815 177.074 191.776 177.08 191.737 177.077Z" fill="white"/>
<path d="M192.076 173.567C192.026 173.566 191.977 173.554 191.933 173.531C190.27 172.61 189.349 169.878 189.314 169.765C189.301 169.728 189.295 169.689 189.297 169.65C189.299 169.61 189.309 169.572 189.326 169.537C189.344 169.501 189.368 169.47 189.397 169.444C189.426 169.418 189.461 169.398 189.498 169.385C189.573 169.361 189.654 169.367 189.724 169.403C189.794 169.438 189.848 169.5 189.872 169.575C189.872 169.575 190.763 172.207 192.248 173.008C192.315 173.048 192.365 173.112 192.386 173.188C192.407 173.263 192.398 173.343 192.361 173.412C192.334 173.463 192.293 173.505 192.242 173.533C192.191 173.56 192.133 173.572 192.076 173.567Z" fill="white"/>
<path d="M192.367 171.767C192.301 171.766 192.237 171.744 192.186 171.703C192.134 171.662 192.098 171.605 192.082 171.541C192.072 171.504 192.07 171.465 192.075 171.426C192.081 171.388 192.094 171.351 192.114 171.318C192.134 171.285 192.16 171.256 192.191 171.233C192.223 171.21 192.258 171.194 192.296 171.185C196.584 170.098 198.069 167.853 198.081 167.829C198.102 167.796 198.13 167.767 198.162 167.744C198.194 167.722 198.23 167.706 198.269 167.697C198.307 167.689 198.347 167.688 198.385 167.695C198.424 167.701 198.461 167.716 198.494 167.737C198.527 167.758 198.556 167.785 198.578 167.817C198.601 167.849 198.617 167.886 198.626 167.924C198.634 167.962 198.635 168.002 198.628 168.041C198.621 168.079 198.607 168.116 198.586 168.15C198.521 168.25 196.976 170.609 192.444 171.761L192.367 171.767Z" fill="white"/>
<path d="M123.552 169.611C123.552 169.611 117.856 168.221 117.559 157.553C117.244 146.041 118.954 132.605 112.213 131.518C105.471 130.431 101.728 138.646 101.812 148.239C101.889 156.638 105.275 174.874 123.528 178.449L123.552 169.611Z" fill="#FFE581"/>
<path opacity="0.2" d="M123.552 169.611C123.552 169.611 117.856 168.221 117.559 157.553C117.244 146.041 118.954 132.605 112.213 131.518C105.471 130.431 101.728 138.646 101.812 148.239C101.889 156.638 105.275 174.874 123.528 178.449L123.552 169.611Z" fill="black"/>
<path d="M123.552 177.357H123.499C119.394 176.608 116.05 174.345 113.561 170.638C106.183 159.632 108.506 139.079 109.272 135.491C109.289 135.415 109.335 135.348 109.401 135.305C109.466 135.262 109.546 135.246 109.623 135.26C109.7 135.278 109.766 135.325 109.81 135.392C109.853 135.458 109.869 135.538 109.854 135.616C109.1 139.18 106.789 159.471 114.054 170.306C115.111 171.986 116.506 173.428 118.151 174.541C119.795 175.653 121.653 176.412 123.605 176.768C123.644 176.776 123.681 176.79 123.714 176.812C123.747 176.833 123.776 176.861 123.798 176.894C123.82 176.927 123.835 176.963 123.843 177.002C123.851 177.04 123.851 177.08 123.843 177.119C123.83 177.187 123.794 177.247 123.741 177.291C123.688 177.334 123.621 177.358 123.552 177.357Z" fill="white"/>
<path d="M123.552 204.734C117.665 205.53 108.108 205.518 102.59 201.17C97.0715 196.822 98.2239 193.08 100.344 191.517C102.465 189.955 104.306 188.173 100.659 184.704C97.0121 181.235 91.1553 175.664 89.2545 167.306C87.3537 158.948 88.2922 153.721 92.0225 151.981C95.64 150.294 96.5963 152.979 98.8119 158.515C101.028 164.051 106.011 159.305 110.276 161.033C114.541 162.762 114.369 166.183 114.636 169.124C114.903 172.064 116.311 172.878 118.729 172.878C121.146 172.878 123.552 174.268 123.552 177.036V204.734Z" fill="#FFE581"/>
<path d="M123.552 195.028C123.527 195.034 123.5 195.034 123.475 195.028C123.219 194.957 117.131 193.187 108.262 185.043C98.8178 176.37 94.3629 163.362 94.3153 163.231C94.2926 163.156 94.2996 163.076 94.3351 163.006C94.3705 162.936 94.4315 162.883 94.5054 162.857C94.5795 162.832 94.6602 162.838 94.7303 162.872C94.8003 162.907 94.854 162.967 94.8796 163.041C94.9212 163.172 99.3346 176.038 108.666 184.603C117.41 192.64 123.57 194.44 123.635 194.458C123.673 194.469 123.708 194.487 123.738 194.511C123.768 194.536 123.794 194.566 123.812 194.6C123.831 194.634 123.843 194.672 123.847 194.711C123.851 194.749 123.848 194.789 123.837 194.826C123.818 194.886 123.78 194.938 123.728 194.975C123.677 195.011 123.615 195.03 123.552 195.028Z" fill="white"/>
<path d="M110.739 187.11C110.68 187.111 110.621 187.093 110.572 187.059C110.523 187.025 110.486 186.976 110.466 186.92C108.559 182.025 108.126 171.553 108.09 171.108C108.089 171.029 108.117 170.953 108.17 170.896C108.224 170.838 108.297 170.803 108.375 170.799C108.453 170.8 108.527 170.83 108.584 170.882C108.641 170.935 108.677 171.007 108.684 171.084C108.684 171.191 109.13 181.901 111.001 186.706C111.015 186.743 111.022 186.782 111.021 186.821C111.02 186.86 111.011 186.899 110.995 186.935C110.979 186.971 110.956 187.003 110.928 187.03C110.899 187.057 110.865 187.078 110.829 187.092C110.8 187.102 110.77 187.108 110.739 187.11Z" fill="white"/>
<path d="M110.692 194.149C110.144 194.153 109.597 194.125 109.052 194.066C109.013 194.061 108.976 194.049 108.942 194.03C108.907 194.01 108.877 193.984 108.853 193.954C108.829 193.923 108.811 193.887 108.8 193.849C108.789 193.812 108.786 193.772 108.791 193.733C108.796 193.694 108.808 193.656 108.827 193.622C108.847 193.588 108.872 193.558 108.903 193.534C108.934 193.509 108.97 193.491 109.007 193.481C109.045 193.47 109.085 193.467 109.124 193.472C109.177 193.472 114.707 194.101 117.244 191.518C117.27 191.486 117.303 191.461 117.339 191.443C117.376 191.425 117.416 191.414 117.457 191.412C117.498 191.411 117.539 191.417 117.577 191.432C117.615 191.447 117.65 191.469 117.679 191.498C117.708 191.526 117.731 191.561 117.746 191.599C117.762 191.637 117.769 191.678 117.767 191.718C117.766 191.759 117.756 191.8 117.739 191.837C117.721 191.874 117.696 191.906 117.665 191.933C115.83 193.828 112.628 194.149 110.692 194.149Z" fill="white"/>
<path d="M129.421 212.682L185.257 180.439C185.38 180.396 185.486 180.316 185.562 180.209C185.637 180.103 185.678 179.976 185.678 179.845C185.678 179.715 185.637 179.588 185.562 179.481C185.486 179.375 185.38 179.295 185.257 179.251L180.095 176.281C179.775 176.121 179.422 176.037 179.064 176.037C178.706 176.037 178.353 176.121 178.034 176.281L122.18 208.494C122.057 208.537 121.95 208.618 121.875 208.724C121.8 208.83 121.759 208.958 121.759 209.088C121.759 209.218 121.8 209.346 121.875 209.452C121.95 209.558 122.057 209.639 122.18 209.682L127.36 212.652C127.677 212.817 128.029 212.906 128.387 212.912C128.745 212.917 129.099 212.838 129.421 212.682Z" fill="#E0E0E0"/>
<path d="M183.724 55.9548L133.377 85.0252C132.628 85.5136 132.005 86.1714 131.559 86.9454C131.112 87.7194 130.853 88.5878 130.805 89.4802V208.916C130.805 210.555 131.957 211.22 133.377 210.401L183.724 181.33C184.474 180.843 185.097 180.185 185.544 179.411C185.991 178.637 186.249 177.768 186.296 176.875V57.4398C186.296 55.8003 185.15 55.1351 183.724 55.9548Z" fill="#455A64"/>
<path d="M133.377 85.0252L183.724 55.9548C184.995 55.2182 186.047 55.6756 186.261 56.9527C186.142 56.1498 185.854 55.3811 185.417 54.6972C184.98 54.0133 184.403 53.4297 183.724 52.9848L181.633 51.7968C180.836 51.3924 179.955 51.1817 179.061 51.1817C178.167 51.1817 177.286 51.3924 176.489 51.7968L126.136 80.8434C125.378 81.3189 124.752 81.9791 124.318 82.762L131.559 86.92C131.993 86.1432 132.619 85.4908 133.377 85.0252Z" fill="#37474F"/>
<path d="M123.552 204.734C123.601 205.626 123.859 206.495 124.306 207.269C124.753 208.043 125.376 208.701 126.124 209.189L128.221 210.377C128.947 210.74 129.741 210.946 130.552 210.98C131.362 211.015 132.171 210.878 132.925 210.579C131.737 211.042 130.793 210.359 130.793 208.892V89.4802C130.823 88.584 131.082 87.7105 131.547 86.9438L124.306 82.7858C123.848 83.5467 123.589 84.4108 123.552 85.2984V204.734Z" fill="#263238"/>
<path d="M134.761 100.938L182.358 73.4659C183.213 72.9788 183.902 73.3768 183.902 74.3569V162.756C183.874 163.292 183.719 163.813 183.451 164.278C183.182 164.742 182.808 165.137 182.358 165.429L134.779 192.902C133.923 193.395 133.234 192.997 133.234 192.011V103.611C133.261 103.077 133.413 102.557 133.679 102.093C133.944 101.629 134.315 101.233 134.761 100.938Z" fill="white"/>
<path d="M158.55 75.0163C158.288 75.1887 158.069 75.4205 157.912 75.6928C157.756 75.9652 157.665 76.2706 157.648 76.5844C157.648 77.1784 158.052 77.3982 158.55 77.1071C158.814 76.9357 159.034 76.7042 159.19 76.4316C159.347 76.159 159.437 75.8531 159.453 75.539C159.453 74.9628 159.049 74.7311 158.55 75.0163Z" fill="#37474F"/>
<path d="M158.55 183.392C157.512 184.071 156.648 184.985 156.029 186.061C155.41 187.136 155.053 188.342 154.986 189.581C154.986 191.856 156.584 192.783 158.55 191.642C159.589 190.963 160.452 190.048 161.071 188.973C161.69 187.898 162.048 186.692 162.114 185.453C162.126 183.178 160.523 182.251 158.55 183.392Z" fill="#37474F"/>
<path d="M150.003 84.2114C149.481 84.5579 149.047 85.0223 148.738 85.5671C148.428 86.1119 148.251 86.7218 148.221 87.3477C148.221 88.5001 149.029 88.9693 150.003 88.3931C150.53 88.0499 150.969 87.5869 151.284 87.0419C151.599 86.4969 151.781 85.8853 151.815 85.2568C151.815 84.1045 151.007 83.6352 150.003 84.2114Z" fill="#37474F"/>
<path d="M154.44 83.8194C154.44 84.5916 155.034 84.8826 155.729 84.4728L167.609 77.6002C167.977 77.3703 168.286 77.0569 168.509 76.6853C168.733 76.3137 168.867 75.8945 168.898 75.4618C168.898 74.6955 168.304 74.4044 167.609 74.8143L155.729 81.6869C155.362 81.9161 155.054 82.2287 154.83 82.5991C154.606 82.9696 154.472 83.3877 154.44 83.8194Z" fill="#37474F"/>
<path d="M127.567 104.764C127.989 105.038 128.34 105.408 128.592 105.844C128.843 106.279 128.989 106.768 129.017 107.27C129.017 108.197 128.369 108.571 127.567 108.108C127.147 107.832 126.798 107.462 126.547 107.027C126.296 106.591 126.151 106.103 126.124 105.601C126.124 104.681 126.771 104.306 127.567 104.764Z" fill="#37474F"/>
<path d="M127.567 115.919C127.989 116.194 128.34 116.564 128.592 116.999C128.843 117.435 128.989 117.923 129.017 118.426C129.017 119.346 128.369 119.721 127.567 119.263C127.147 118.988 126.798 118.617 126.547 118.182C126.296 117.747 126.151 117.258 126.124 116.757C126.124 115.83 126.771 115.456 127.567 115.919Z" fill="#37474F"/>
<path d="M127.116 104.989C127.538 105.264 127.888 105.634 128.14 106.07C128.392 106.505 128.538 106.994 128.565 107.496C128.565 108.417 127.918 108.791 127.116 108.334C126.694 108.059 126.344 107.689 126.092 107.254C125.84 106.818 125.694 106.329 125.667 105.827C125.673 104.9 126.32 104.544 127.116 104.989Z" fill="#455A64"/>
<path d="M127.116 116.139C127.538 116.414 127.89 116.785 128.142 117.222C128.393 117.658 128.539 118.148 128.565 118.651C128.565 119.572 127.918 119.946 127.116 119.483C126.693 119.21 126.342 118.84 126.09 118.404C125.838 117.968 125.693 117.479 125.667 116.976C125.673 116.056 126.32 115.682 127.116 116.139Z" fill="#455A64"/>
<path d="M193.537 77.1547C193.537 76.1686 192.848 75.7706 191.993 76.2637L186.296 79.5485L144.413 103.736C143.963 104.028 143.589 104.423 143.321 104.887C143.052 105.352 142.897 105.873 142.869 106.409V194.784C142.869 195.771 143.558 196.168 144.413 195.675L186.314 171.482L191.993 168.203C192.443 167.911 192.817 167.516 193.085 167.052C193.354 166.587 193.509 166.066 193.537 165.53V77.1547Z" fill="white"/>
<path d="M194.131 77.1547C194.168 76.8568 194.117 76.5545 193.984 76.2856C193.85 76.0167 193.64 75.7931 193.38 75.6429C193.12 75.4927 192.822 75.4224 192.522 75.4409C192.223 75.4594 191.935 75.5658 191.696 75.7469L186.261 78.8891L144.116 103.243C143.574 103.586 143.123 104.055 142.802 104.611C142.481 105.166 142.3 105.792 142.275 106.433V194.784C142.251 195.081 142.308 195.379 142.44 195.645C142.572 195.912 142.773 196.138 143.023 196.299C143.236 196.423 143.478 196.486 143.724 196.483C144.072 196.472 144.412 196.372 144.71 196.192L186.884 171.838L192.307 168.708C192.847 168.362 193.296 167.892 193.616 167.337C193.937 166.782 194.119 166.158 194.149 165.518L194.131 77.1547ZM186.272 170.823L185.785 171.108L144.14 195.153C144.07 195.207 143.989 195.244 143.903 195.263C143.816 195.281 143.727 195.28 143.641 195.26C143.564 195.212 143.487 195.046 143.487 194.773V106.409C143.517 105.978 143.646 105.559 143.862 105.185C144.078 104.81 144.376 104.49 144.734 104.247L186.338 80.19L192.278 76.7507C192.348 76.697 192.429 76.6595 192.515 76.641C192.602 76.6225 192.691 76.6234 192.777 76.6438C192.854 76.6913 192.931 76.8577 192.931 77.1309V165.53C192.9 165.961 192.772 166.38 192.556 166.754C192.34 167.129 192.042 167.45 191.684 167.692L186.261 170.823H186.272Z" fill="#FFE581"/>
<path d="M168.203 97.6892C173.549 94.6123 177.855 97.0952 177.855 103.267C177.855 109.439 173.531 116.929 168.203 119.982C162.875 123.035 158.55 120.576 158.55 114.41C158.55 108.245 162.875 100.772 168.203 97.6892Z" fill="#FFE581"/>
<path d="M168.203 102.536C169.931 101.538 171.333 102.346 171.333 104.318C171.275 105.405 170.961 106.462 170.417 107.404C169.873 108.347 169.114 109.147 168.203 109.742C166.474 110.739 165.073 109.932 165.073 107.96C165.131 106.873 165.445 105.816 165.989 104.874C166.533 103.931 167.292 103.131 168.203 102.536Z" fill="#FFE581"/>
<path d="M174.303 113.181C174.303 109.902 172.005 108.571 169.159 110.211L167.377 111.238C164.538 112.878 162.233 116.869 162.233 120.148V121.033C163.879 121.574 165.946 121.283 168.173 119.982C170.641 118.46 172.728 116.394 174.274 113.941L174.303 113.181Z" fill="#FFE581"/>
<path opacity="0.7" d="M168.203 102.536C169.931 101.538 171.333 102.346 171.333 104.318C171.275 105.405 170.961 106.462 170.417 107.404C169.873 108.347 169.114 109.147 168.203 109.742C166.474 110.739 165.073 109.932 165.073 107.96C165.131 106.873 165.445 105.816 165.989 104.874C166.533 103.931 167.292 103.131 168.203 102.536Z" fill="white"/>
<path opacity="0.7" d="M174.303 113.181C174.303 109.902 172.005 108.571 169.159 110.211L167.377 111.238C164.538 112.878 162.233 116.869 162.233 120.148V121.033C163.879 121.574 165.946 121.283 168.173 119.982C170.641 118.46 172.728 116.394 174.274 113.941L174.303 113.181Z" fill="white"/>
<path d="M149.528 133.555L161.948 126.385C162.542 126.059 162.976 126.32 162.976 126.979V127.389C162.957 127.746 162.854 128.094 162.676 128.403C162.497 128.713 162.248 128.976 161.948 129.171L149.528 136.341C148.963 136.668 148.5 136.4 148.5 135.747V135.337C148.519 134.98 148.622 134.633 148.801 134.323C148.979 134.014 149.228 133.75 149.528 133.555Z" fill="#FFE581"/>
<path opacity="0.1" d="M149.528 133.555L161.948 126.385C162.542 126.059 162.976 126.32 162.976 126.979V127.389C162.957 127.746 162.854 128.094 162.676 128.403C162.497 128.713 162.248 128.976 161.948 129.171L149.528 136.341C148.963 136.668 148.5 136.4 148.5 135.747V135.337C148.519 134.98 148.622 134.633 148.801 134.323C148.979 134.014 149.228 133.75 149.528 133.555Z" fill="black"/>
<path d="M149.017 142.21L186.593 120.517C186.872 120.35 187.104 120.481 187.104 120.814V125.197C187.094 125.375 187.042 125.548 186.953 125.703C186.865 125.858 186.741 125.989 186.593 126.088L149.017 147.781C148.732 147.948 148.5 147.811 148.5 147.484V143.101C148.51 142.922 148.562 142.748 148.652 142.593C148.742 142.439 148.867 142.307 149.017 142.21Z" fill="#FFE581"/>
<path opacity="0.2" d="M149.017 142.21L186.593 120.517C186.872 120.35 187.104 120.481 187.104 120.814V125.197C187.094 125.375 187.042 125.548 186.953 125.703C186.865 125.858 186.741 125.989 186.593 126.088L149.017 147.781C148.732 147.948 148.5 147.811 148.5 147.484V143.101C148.51 142.922 148.562 142.748 148.652 142.593C148.742 142.439 148.867 142.307 149.017 142.21Z" fill="white"/>
<path d="M149.528 153.056L161.948 145.886C162.542 145.56 162.976 145.827 162.976 146.48V146.89C162.957 147.247 162.855 147.595 162.676 147.905C162.498 148.215 162.248 148.478 161.948 148.672L149.528 155.842C148.963 156.174 148.5 155.907 148.5 155.248V154.838C148.52 154.481 148.624 154.134 148.802 153.825C148.981 153.515 149.229 153.252 149.528 153.056Z" fill="#FFE581"/>
<path opacity="0.1" d="M149.528 153.056L161.948 145.886C162.542 145.56 162.976 145.827 162.976 146.48V146.89C162.957 147.247 162.855 147.595 162.676 147.905C162.498 148.215 162.248 148.478 161.948 148.672L149.528 155.842C148.963 156.174 148.5 155.907 148.5 155.248V154.838C148.52 154.481 148.624 154.134 148.802 153.825C148.981 153.515 149.229 153.252 149.528 153.056Z" fill="black"/>
<path d="M149.017 161.711L186.593 140.018C186.872 139.851 187.104 139.988 187.104 140.315V144.698C187.094 144.876 187.042 145.049 186.953 145.204C186.865 145.359 186.741 145.491 186.593 145.589L149.017 167.282C148.732 167.449 148.5 167.318 148.5 166.985V162.602C148.51 162.423 148.562 162.249 148.652 162.094C148.742 161.94 148.867 161.808 149.017 161.711Z" fill="#FFE581"/>
<path opacity="0.2" d="M149.017 161.711L186.593 140.018C186.872 139.851 187.104 139.988 187.104 140.315V144.698C187.094 144.876 187.042 145.049 186.953 145.204C186.865 145.359 186.741 145.491 186.593 145.589L149.017 167.282C148.732 167.449 148.5 167.318 148.5 166.985V162.602C148.51 162.423 148.562 162.249 148.652 162.094C148.742 161.94 148.867 161.808 149.017 161.711Z" fill="white"/>
<path d="M164.003 164.199L178.853 155.64C179.447 155.307 179.887 155.574 179.887 156.234V160.82C179.867 161.177 179.764 161.525 179.584 161.835C179.404 162.144 179.154 162.407 178.853 162.602L164.003 171.167C163.409 171.494 162.976 171.226 162.976 170.573V165.981C162.996 165.625 163.1 165.278 163.279 164.969C163.457 164.659 163.705 164.396 164.003 164.199Z" fill="#FFE581"/>
<path opacity="0.1" d="M164.003 164.199L178.853 155.64C179.447 155.307 179.887 155.574 179.887 156.234V160.82C179.867 161.177 179.764 161.525 179.584 161.835C179.404 162.144 179.154 162.407 178.853 162.602L164.003 171.167C163.409 171.494 162.976 171.226 162.976 170.573V165.981C162.996 165.625 163.1 165.278 163.279 164.969C163.457 164.659 163.705 164.396 164.003 164.199Z" fill="black"/>
<path d="M199.168 144.847C199.168 144.847 191.874 134.785 191.446 133.561C191.108 132.658 191.446 131.316 191.553 130.692C191.66 130.068 191.755 128.678 191.862 128.316C192.04 127.639 191.167 127.775 190.674 128.393C190.181 129.011 190.015 130.246 189.759 130.448C189.504 130.65 187.561 127.817 186.546 126.51C185.53 125.203 184.894 124.407 184.271 124.894C183.825 125.245 184.158 126.005 184.894 127.122C185.325 127.723 185.721 128.348 186.082 128.993C186.195 129.237 185.589 129.254 185.263 129.759C185.007 130.151 185.263 130.787 184.906 131.09C184.687 131.257 184.537 131.499 184.484 131.769C184.432 132.04 184.48 132.32 184.621 132.557C185.282 133.595 186.135 134.498 187.134 135.218C188.227 135.973 188.666 136.24 189.314 137.267C189.961 138.295 195.771 148.791 196.163 149.421C196.555 150.05 197.309 151.333 198.455 151.369C199.602 151.405 208.987 143.326 209.468 142.922C211.013 141.633 211.506 141.449 211.767 142.608C211.857 143.019 211.925 143.436 211.969 143.855C212.153 145.328 213.157 150.591 213.157 150.591C213.157 150.591 217.909 152.89 221.812 151.779C225.714 150.668 227.033 149.011 227.033 149.011L225.079 145.827C225.607 144.514 228.048 139.192 228.839 135.468L216.602 133.49C216.353 133.436 215.949 133.335 215.414 133.199C214.743 133.02 213.038 132.432 211.749 133.561C207.544 137.226 199.18 144.847 199.18 144.847" fill="#FFA8A7"/>
<path d="M223.427 206.587L221.235 209.634C222.231 210.1 223.32 210.333 224.419 210.318C226.385 210.389 226.926 209.724 226.997 209.593C227.33 208.88 226.813 207.597 226.67 206.492L223.427 206.587Z" fill="#37474F"/>
<path d="M221.36 208.173C221.36 208.173 218.699 208.001 216.863 207.775C215.028 207.55 213.573 208.441 214 209.195C214.428 209.949 215.444 210.579 217.024 211.108C218.372 211.565 219.994 211.892 221.396 212.296C222.798 212.7 223.772 213.228 224.585 212.943C225.494 212.628 225.886 212.266 225.809 211.601C225.611 210.654 225.365 209.719 225.073 208.797L221.36 208.173Z" fill="#37474F"/>
<path d="M226.997 203.528C226.997 203.528 226.664 206.296 226.641 206.89C226.617 207.484 223.938 207.674 223.427 206.587L223.344 203.201L226.997 203.528Z" fill="#F28F8F"/>
<path d="M224.3 205.227L225.257 209.433C225.257 209.433 225.346 209.943 223.16 210.27C220.974 210.597 217.541 209.124 216.953 208.827C216.364 208.53 216.299 207.93 218.449 208.048C220.6 208.167 221.36 208.173 221.36 208.173L220.659 206.314L224.3 205.227Z" fill="#FFA8A7"/>
<path d="M228.803 135.432L230.318 135.01C230.318 135.01 233.484 145.031 233.834 145.999C234.185 146.968 234.582 147.989 233.899 149.183C233.086 150.603 228.803 156.311 228.803 156.311L226.082 153.65L229.171 147.995L226.439 142.471L228.803 135.432Z" fill="#F28F8F"/>
<path d="M213.246 122.417C212.891 121.751 212.711 121.005 212.722 120.25C212.733 119.495 212.936 118.755 213.311 118.099C214.82 115.301 218.182 113.941 222.186 114.458C224.039 114.701 226.225 116.24 227.419 118.539C228.738 121.087 228.862 126.219 229.201 128.161L213.246 122.417Z" fill="#37474F"/>
<path d="M213.139 123.516C213.139 123.516 212.189 125.328 212.355 125.494C212.601 125.638 212.871 125.739 213.151 125.791L213.139 123.516Z" fill="#FFA8A7"/>
<path d="M216.026 117.79C214.992 118.461 213.21 119.697 213.133 123.766C213.05 127.924 213.644 129.296 214.262 129.777C214.678 130.104 217.119 129.938 218.164 129.694C219.21 129.45 222.221 127.959 223.308 125.696C224.585 123.035 224.324 119.162 222.429 117.974C221.465 117.404 220.371 117.088 219.251 117.056C218.131 117.024 217.022 117.276 216.026 117.79Z" fill="#FFA8A7"/>
<path d="M226.997 148.987C228.827 151.838 230.561 154.333 230.941 157.553C231.725 164.318 229.159 172.052 228.607 177.06C229.646 178.484 230.245 180.181 230.329 181.942C230.329 184.015 226.997 203.528 226.997 203.528C226.997 203.528 224.574 204.265 223.344 203.201L221.057 167.306L222.245 162.934L226.997 148.987Z" fill="#FFE581"/>
<path opacity="0.2" d="M226.997 148.987C228.827 151.838 230.561 154.333 230.941 157.553C231.725 164.318 229.159 172.052 228.607 177.06C229.646 178.484 230.245 180.181 230.329 181.942C230.329 184.015 226.997 203.528 226.997 203.528C226.997 203.528 224.574 204.265 223.344 203.201L221.057 167.306L222.245 162.934L226.997 148.987Z" fill="black"/>
<path d="M221.057 167.306L222.245 162.934C224.52 162.335 226.714 161.464 228.779 160.338C228.779 160.338 227.544 162.59 223.991 163.825L222.156 169.439L222.002 182.299L221.057 167.306Z" fill="#FFE581"/>
<path opacity="0.3" d="M221.057 167.306L222.245 162.934C224.52 162.335 226.714 161.464 228.779 160.338C228.779 160.338 227.544 162.59 223.991 163.825L222.156 169.439L222.002 182.299L221.057 167.306Z" fill="black"/>
<path d="M226.997 148.987C227.977 150.591 230.318 153.323 229.819 155.955C229.225 159.139 227.502 161.378 222.263 162.934L217.345 180.754C217.345 180.754 219.905 183.13 220.689 185.429C221.473 187.728 224.3 205.239 224.3 205.239C224.3 205.239 223.421 206.67 220.659 206.326C220.659 206.326 211.03 184.348 210.353 182.916C209.531 181.467 209.243 179.775 209.539 178.135C209.842 175.83 213.103 150.603 213.103 150.603L226.997 148.987Z" fill="#FFE581"/>
<path opacity="0.2" d="M226.997 148.987C227.977 150.591 230.318 153.323 229.819 155.955C229.225 159.139 227.502 161.378 222.263 162.934L217.345 180.754C217.345 180.754 219.905 183.13 220.689 185.429C221.473 187.728 224.3 205.239 224.3 205.239C224.3 205.239 223.421 206.67 220.659 206.326C220.659 206.326 211.03 184.348 210.353 182.916C209.531 181.467 209.243 179.775 209.539 178.135C209.842 175.83 213.103 150.603 213.103 150.603L226.997 148.987Z" fill="black"/>
<path d="M228.803 135.432L216.566 133.454C216.317 133.401 215.913 133.3 215.378 133.163C215.378 133.163 214.856 140.837 211.714 142.596C211.791 142.964 211.856 143.374 211.915 143.843C212.1 145.316 213.103 150.579 213.103 150.579C213.103 150.579 217.855 152.878 221.758 151.767C225.661 150.656 226.979 148.999 226.979 148.999L225.025 145.815C225.572 144.49 228.031 139.168 228.803 135.432Z" fill="#FFE581"/>
<path opacity="0.7" d="M228.803 135.432L216.566 133.454C216.317 133.401 215.913 133.3 215.378 133.163C215.378 133.163 214.856 140.837 211.714 142.596C211.791 142.964 211.856 143.374 211.915 143.843C212.1 145.316 213.103 150.579 213.103 150.579C213.103 150.579 217.855 152.878 221.758 151.767C225.661 150.656 226.979 148.999 226.979 148.999L225.025 145.815C225.572 144.49 228.031 139.168 228.803 135.432Z" fill="white"/>
<path d="M225.577 144.55C223.952 145.526 222.25 146.366 220.487 147.063C222.087 147.031 223.653 146.598 225.043 145.803L225.577 144.55Z" fill="#FFE581"/>
<path d="M215.723 117.992C215.723 117.992 215.129 121.853 216.531 124.122C216.531 124.122 217.054 122.584 218.354 122.875C219.655 123.166 219.727 124.883 218.812 125.845C218.579 126.115 218.275 126.314 217.935 126.419C217.595 126.524 217.231 126.531 216.887 126.439C216.887 126.439 216.679 129.231 216.566 131.571C216.454 133.911 215.836 139.014 218.467 141.075C221.099 143.136 227.704 143.861 230.799 139.537C232.521 137.131 230.234 132.878 229.171 128.108C228.191 123.724 227.639 117.226 222.988 116.18C218.337 115.135 215.723 117.992 215.723 117.992Z" fill="#37474F"/>
</svg>
