<svg width="246" height="246" viewBox="0 0 246 246" fill="none" xmlns="http://www.w3.org/2000/svg">
<path d="M42.4498 220.219C-2.03193 194.537 -2.03193 152.894 42.4498 127.231C86.9315 101.568 159.054 101.549 203.55 127.231C248.047 152.914 248.032 194.556 203.55 220.219C159.069 245.882 86.9364 245.907 42.4498 220.219Z" fill="#F5F5F5"/>
<path d="M78.0509 221.459C97.3542 221.459 113.003 212.426 113.003 201.282C113.003 190.139 97.3542 181.105 78.0509 181.105C58.7476 181.105 43.0992 190.139 43.0992 201.282C43.0992 212.426 58.7476 221.459 78.0509 221.459Z" fill="#E0E0E0"/>
<path d="M158.834 191.852C183.071 178.78 197.445 158.406 190.94 146.346C184.435 134.285 159.514 135.105 135.278 148.176C111.042 161.248 96.6679 181.622 103.173 193.682C109.678 205.743 134.598 204.923 158.834 191.852Z" fill="#E0E0E0"/>
<path d="M182.95 163.201C187.796 157.425 195.388 153.661 203.924 151.438C212.357 149.248 213.867 144.058 208.278 142.38C201.946 140.471 194.045 143.974 188.948 148.85C180.072 157.347 178.955 163.836 178.955 163.836L182.95 163.201Z" fill="#FDED85"/>
<path opacity="0.15" d="M182.95 163.201C187.796 157.425 195.388 153.661 203.924 151.438C212.357 149.248 213.867 144.058 208.278 142.38C201.946 140.471 194.045 143.974 188.948 148.85C180.072 157.347 178.955 163.836 178.955 163.836L182.95 163.201Z" fill="black"/>
<path d="M180.456 162.852C180.42 162.859 180.383 162.859 180.348 162.852C180.318 162.838 180.292 162.818 180.271 162.794C180.25 162.77 180.233 162.741 180.223 162.711C180.212 162.68 180.208 162.648 180.21 162.615C180.212 162.583 180.22 162.551 180.234 162.522C187.427 147.762 203.358 144.131 207.216 144.407C207.28 144.412 207.34 144.442 207.382 144.491C207.425 144.54 207.446 144.603 207.442 144.668C207.436 144.733 207.405 144.792 207.355 144.835C207.305 144.877 207.241 144.898 207.176 144.894C203.398 144.609 187.757 148.205 180.677 162.739C180.653 162.775 180.62 162.804 180.581 162.824C180.542 162.844 180.499 162.854 180.456 162.852Z" fill="white"/>
<path d="M178.955 164.736C178.956 164.974 179.019 165.207 179.138 165.412C179.258 165.617 179.43 165.786 179.636 165.903C179.843 166.02 180.076 166.08 180.314 166.078C180.551 166.075 180.783 166.009 180.987 165.888C185.494 163.265 192.067 161.814 202.704 164.845C208.362 166.453 211.147 165.376 212.337 163.073C213.666 160.515 210.861 158.04 207.663 156.874C196.775 152.894 186.95 155.61 178.955 163.551V164.736Z" fill="#FDED85"/>
<path d="M179.58 164.948C179.545 164.949 179.51 164.942 179.478 164.928C179.446 164.915 179.417 164.895 179.393 164.869C179.348 164.822 179.322 164.76 179.322 164.695C179.322 164.629 179.348 164.567 179.393 164.52C188.795 156.117 203.358 157.755 208.869 161.032C208.925 161.064 208.965 161.118 208.982 161.181C208.998 161.243 208.99 161.31 208.957 161.366C208.924 161.422 208.869 161.463 208.806 161.48C208.742 161.496 208.675 161.487 208.618 161.455C203.206 158.242 188.938 156.643 179.723 164.899C179.681 164.929 179.631 164.946 179.58 164.948Z" fill="white"/>
<path d="M73.7607 184.328C69.6279 178.02 62.5333 173.386 54.3169 170.173C46.2087 167.004 45.3182 161.676 51.0647 160.663C57.5788 159.516 65.0129 163.929 69.5 169.371C77.3129 178.857 77.6524 185.445 77.6524 185.445L73.7607 184.328Z" fill="#FDED85"/>
<path opacity="0.15" d="M73.7607 184.328C69.6279 178.02 62.5333 173.386 54.3169 170.173C46.2087 167.004 45.3182 161.676 51.0647 160.663C57.5788 159.516 65.0129 163.929 69.5 169.371C77.3129 178.857 77.6524 185.445 77.6524 185.445L73.7607 184.328Z" fill="black"/>
<path d="M76.26 184.288C76.2957 184.295 76.3325 184.295 76.3682 184.288C76.4297 184.266 76.48 184.221 76.5084 184.162C76.5369 184.103 76.5413 184.036 76.5208 183.974C71.1088 168.471 55.7387 162.985 51.8617 162.818C51.7973 162.815 51.7344 162.838 51.6865 162.881C51.6387 162.924 51.6097 162.984 51.6059 163.049C51.6044 163.114 51.6281 163.178 51.672 163.226C51.716 163.275 51.7768 163.305 51.8421 163.31C55.6305 163.467 70.7348 168.884 76.0534 184.151C76.0725 184.19 76.1017 184.223 76.138 184.248C76.1743 184.272 76.2164 184.286 76.26 184.288Z" fill="white"/>
<path d="M77.6868 185.145C77.6483 185.494 77.5202 185.828 77.3151 186.114C77.1099 186.399 76.8346 186.627 76.5156 186.776C76.1967 186.924 75.8449 186.988 75.4942 186.961C75.1435 186.933 74.8057 186.816 74.5134 186.621C70.3413 183.826 64.1273 182.01 53.9478 183.669C48.1422 184.598 45.5051 183.177 44.5998 180.771C43.5863 178.074 46.6662 175.954 49.9774 175.172C61.259 172.505 70.6955 176.362 77.6967 185.184L77.6868 185.145Z" fill="#FDED85"/>
<path d="M76.9095 186.468C76.9439 186.473 76.9789 186.47 77.012 186.46C77.0452 186.45 77.0757 186.432 77.1014 186.409C77.1468 186.362 77.1722 186.299 77.1722 186.234C77.1722 186.169 77.1468 186.106 77.1014 186.06C68.7374 176.608 54.1004 176.515 48.2407 179.118C48.1806 179.144 48.1337 179.194 48.1102 179.255C48.0866 179.316 48.0885 179.385 48.1152 179.445C48.142 179.505 48.1915 179.552 48.2528 179.575C48.3142 179.599 48.3824 179.597 48.4424 179.57C54.184 177.017 68.5504 177.11 76.7324 186.384C76.7538 186.411 76.7808 186.432 76.8114 186.446C76.8421 186.461 76.8756 186.468 76.9095 186.468Z" fill="white"/>
<path d="M187.363 71.9156L187.285 71.8763L168.53 61.0818L168.417 61.0277C159.654 56.5997 147.964 57.933 135.389 66.0608C110.129 82.3952 90.8823 119.994 92.3976 150.04C93.1504 165.012 98.9265 175.28 107.65 179.796L107.723 179.836L126.483 190.635L126.572 190.684C135.334 195.112 147.034 193.799 159.62 185.661C184.879 169.327 204.126 131.728 202.611 101.682C201.868 86.7002 196.092 76.4322 187.363 71.9156Z" fill="#37474F"/>
<path d="M125.839 190.286L107.748 179.826L107.66 179.772C98.9364 175.245 93.1652 164.977 92.4075 150.026C91.7335 136.623 95.1922 121.731 101.46 107.901L101.583 107.595L120.22 118.695C113.942 132.525 110.493 147.418 111.167 160.82C111.881 175.477 117.426 185.622 125.839 190.286Z" fill="#263238"/>
<path d="M159.629 185.651C184.889 169.317 204.136 131.718 202.62 101.672C201.105 71.6253 179.398 60.516 154.139 76.8504C128.879 93.1848 109.628 130.783 111.143 160.825C112.658 190.866 134.37 201.986 159.629 185.651Z" fill="#455A64"/>
<path d="M181.022 69.5836L149.361 134.808L142.547 127.428C140.515 125.313 137.735 124.078 134.803 123.99C131.871 123.903 129.022 124.968 126.867 126.958C124.712 128.948 123.424 131.704 123.278 134.633C123.133 137.563 124.142 140.432 126.09 142.626L144.043 162.075C146.017 164.219 148.753 165.505 151.664 165.656C151.871 165.656 152.077 165.656 152.284 165.656C152.827 165.656 153.37 165.616 153.907 165.538C155.715 165.275 157.43 164.574 158.903 163.495C160.377 162.416 161.564 160.992 162.36 159.349L198.67 84.565C194.945 76.26 188.746 71.1137 181.022 69.5836Z" fill="#37474F"/>
<path d="M206.734 48.1028C206.537 47.9897 206.33 47.8814 206.123 47.783C203.803 46.6586 201.131 46.5005 198.694 47.3436C196.257 48.1866 194.254 49.9619 193.125 52.2799L152.84 135.261L150.547 132.801C149.885 132.078 149.115 131.462 148.264 130.975C147.064 130.287 141.957 127.33 141.13 126.852C139.116 125.687 136.75 125.282 134.462 125.712C132.175 126.142 130.117 127.378 128.663 129.196C127.21 131.014 126.456 133.292 126.539 135.618C126.622 137.944 127.536 140.164 129.116 141.873L147.069 161.317C147.742 162.047 148.523 162.67 149.386 163.162C150.557 163.826 155.644 166.778 156.481 167.26C157.638 167.93 158.92 168.355 160.248 168.507C161.576 168.659 162.922 168.535 164.2 168.144C165.479 167.753 166.663 167.103 167.678 166.234C168.694 165.365 169.52 164.296 170.104 163.093L217.764 64.9243C218.836 62.7118 219.031 60.1759 218.311 57.8254C217.591 55.4748 216.009 53.4833 213.882 52.2504L206.734 48.1028Z" fill="#FDED85"/>
<path opacity="0.15" d="M206.734 48.1028C206.537 47.9897 206.33 47.8814 206.123 47.783C203.803 46.6586 201.131 46.5005 198.694 47.3436C196.257 48.1866 194.254 49.9619 193.125 52.2799L152.84 135.261L150.547 132.801C149.885 132.078 149.115 131.462 148.264 130.975C147.064 130.287 141.957 127.33 141.13 126.852C139.116 125.687 136.75 125.282 134.462 125.712C132.175 126.142 130.117 127.378 128.663 129.196C127.21 131.014 126.456 133.292 126.539 135.618C126.622 137.944 127.536 140.164 129.116 141.873L147.069 161.317C147.742 162.047 148.523 162.67 149.386 163.162C150.557 163.826 155.644 166.778 156.481 167.26C157.638 167.93 158.92 168.355 160.248 168.507C161.576 168.659 162.922 168.535 164.2 168.144C165.479 167.753 166.663 167.103 167.678 166.234C168.694 165.365 169.52 164.296 170.104 163.093L217.764 64.9243C218.836 62.7118 219.031 60.1759 218.311 57.8254C217.591 55.4748 216.009 53.4833 213.882 52.2504L206.734 48.1028Z" fill="black"/>
<path opacity="0.15" d="M156.456 167.241C155.629 166.749 150.552 163.797 149.366 163.142C148.504 162.65 147.722 162.027 147.049 161.297L129.096 141.853C128.304 140.99 127.676 139.989 127.241 138.901L134.38 143.019C134.813 144.111 135.445 145.112 136.245 145.971L154.193 165.415C154.853 166.132 155.616 166.747 156.456 167.241Z" fill="black"/>
<path opacity="0.15" d="M202.522 53.4115C201.584 54.2532 200.819 55.2691 200.269 56.4029L158.832 141.755L152.84 135.261L193.125 52.2799C193.674 51.1442 194.441 50.1277 195.383 49.2886L202.522 53.4115Z" fill="black"/>
<path d="M213.267 51.906C210.946 50.7842 208.275 50.6276 205.839 51.4704C203.403 52.3132 201.4 54.0867 200.269 56.4029L158.832 141.755L150.552 132.781C148.78 130.981 146.377 129.941 143.852 129.882C141.326 129.823 138.877 130.749 137.023 132.464C135.168 134.179 134.054 136.548 133.916 139.07C133.778 141.593 134.628 144.069 136.284 145.976L154.232 165.425C155.307 166.588 156.648 167.47 158.141 167.996C159.634 168.523 161.233 168.676 162.799 168.445C164.365 168.213 165.85 167.603 167.127 166.667C168.403 165.731 169.432 164.497 170.124 163.073L217.784 64.9046C218.907 62.5817 219.062 59.908 218.215 57.4708C217.368 55.0335 215.589 53.0321 213.267 51.906Z" fill="#FDED85"/>
<path d="M77.3572 61.5C73.6032 61.5 71.035 62.484 68.3684 66.2724C65.9083 69.7558 59.1975 81.367 59.1975 81.367C59.1975 81.367 54.2775 71.2711 53.7855 69.2588C53.2935 67.2466 53.323 66.3511 53.7855 65.4754C54.4626 64.4402 54.8873 63.2606 55.0253 62.0314C55.2172 59.6107 55.8076 57.5394 55.2664 57.4705C53.7658 57.3869 53.7067 59.3155 52.9195 60.452C52.8196 60.5618 52.6951 60.6464 52.5563 60.699C52.4175 60.7516 52.2683 60.7708 52.1207 60.755C51.9731 60.7392 51.8313 60.6888 51.7068 60.608C51.5823 60.5271 51.4787 60.4181 51.4042 60.2897C51.0746 59.6156 51.2517 58.5086 51.0942 57.7116C51.1369 57.2681 51.2075 56.8277 51.3058 56.393C51.8741 56.4953 52.4545 56.5119 53.0278 56.4422C53.6772 57.4607 54.12 57.8887 55.0253 57.4754C55.1434 57.2885 54.6366 55.9994 54.0413 55.0154C53.9519 54.8649 53.8071 54.7554 53.6379 54.7104C52.5464 54.434 51.4073 54.4021 50.3021 54.6169C50.2186 54.6255 50.1376 54.6508 50.064 54.6914C49.9905 54.732 49.9259 54.787 49.8741 54.8531C49.4587 55.4616 49.1277 56.1237 48.8901 56.8211C48.8261 57.0326 48.6293 57.0277 48.5801 56.8457C48.0881 54.4693 48.0881 51.0942 48.0881 49.5149C48.0881 48.2701 46.2726 48.0733 46.2087 49.8544C46.1008 52.2441 46.1419 54.6382 46.3317 57.0228C46.3317 57.2393 46.1152 57.3426 46.0266 57.1064C45.7118 56.2651 44.9393 53.7215 44.6146 49.3328C44.526 48.152 42.6171 47.9602 42.6466 49.6182C42.7214 52.5578 43.104 55.4815 43.788 58.3414C43.8471 58.548 43.6552 58.73 43.5125 58.4939C42.6169 56.768 41.9013 54.9544 41.3772 53.0819C40.9689 51.6551 39.0648 52.0192 39.4092 53.7953C40.0045 56.9785 40.9492 61.0031 42.3612 63.8813C43.8667 66.9563 45.1656 68.4962 45.9135 70.912C46.6613 73.3277 49.756 87.0102 53.0671 92.3435C55.66 96.5255 58.6267 96.1368 61.8198 93.9327C65.0129 91.7285 76.4224 75.832 76.4224 75.832L77.3572 61.5Z" fill="#9E6767"/>
<path d="M59.1975 81.362C59.1975 81.362 60.7965 84.073 61.0425 86.2427C61.4489 84.136 61.0448 81.9535 59.9109 80.132L59.1975 81.362Z" fill="#874C4C"/>
<path d="M78.1542 61.5C76.2452 61.3032 73.8689 61.2392 71.2219 62.9071C68.575 64.575 67.65 66.8972 66.3659 68.9292C65.0818 70.9612 60.6439 78.1591 60.6439 78.1591C60.6439 78.1591 62.2724 84.993 68.7472 86.4001L78.4445 73.244L78.1542 61.5Z" fill="#455A64"/>
<path d="M86.8478 181.661C87.3398 181.597 87.9942 183.275 88.004 183.821C88.0139 184.367 87.4628 185.543 86.7396 186.645C85.7729 187.957 84.9715 189.383 84.3534 190.891C83.7974 192.406 83.2858 193.4 81.736 195.383C80.014 197.592 75.9697 201.287 69.8295 199.683C68.3289 199.289 67.5811 198.817 67.035 198.271C66.7954 198.029 66.6283 197.725 66.5527 197.392C66.477 197.06 66.4958 196.714 66.607 196.392L86.8478 181.661Z" fill="#263238"/>
<path d="M74.784 179.742V179.796C74.7136 180.256 74.727 180.724 74.8234 181.179C74.9922 182.534 74.872 183.909 74.4709 185.214C74.0698 186.519 73.3968 187.725 72.4962 188.751C71.6409 189.644 70.6754 190.424 69.6229 191.073C66.5135 193.041 66.1789 194.384 66.6168 196.392C67.6599 198.729 74.7102 200.15 78.7643 196.672C80.5136 195.314 81.8508 193.497 82.6265 191.422C83.2149 189.937 83.8986 188.49 84.6732 187.093C85.4555 185.617 86.9414 183.954 86.9856 182.434C87.0102 181.597 86.1837 180.042 85.3817 178.763C84.6437 177.587 83.8811 176.471 83.2169 176.598L83.4039 177.263C82.8479 177.838 82.0459 178.055 81.5638 178.739C80.9635 179.57 80.9832 180.707 80.6142 181.641C80.6022 181.69 80.5796 181.734 80.5481 181.773C80.5166 181.811 80.477 181.842 80.4322 181.863C80.3802 181.872 80.3269 181.863 80.2799 181.839C80.233 181.816 80.1949 181.777 80.1714 181.73C80.1313 181.634 80.1128 181.529 80.1173 181.425L80.073 179.993C80.0952 179.718 80.0222 179.444 79.8664 179.216C79.4826 178.783 78.538 178.832 78.0115 178.812C77.303 178.818 76.5951 178.861 75.891 178.94C75.647 178.916 75.4024 178.981 75.2022 179.122C75.0011 179.28 74.8548 179.497 74.784 179.742Z" fill="#37474F"/>
<path d="M64.3634 151.137C66.0018 156.525 73.6622 175.177 74.1198 176.298L75.645 179.998C76.6494 180.328 77.7255 180.374 78.7544 180.131C78.9168 181.917 79.1874 184.716 79.2907 186.129C79.3301 187.767 79.4728 189.794 79.1185 191.413C78.8184 192.79 78.4691 194.237 78.2083 195.619C78.0952 196.229 77.982 196.844 77.8885 197.459C77.7298 198.103 77.7833 198.782 78.041 199.393C78.198 199.66 78.4052 199.894 78.6511 200.082C79.7439 200.94 81.125 201.345 82.5084 201.213C83.2398 201.178 83.9477 200.943 84.5551 200.534C85.7458 199.683 86.164 198.202 86.7691 196.943C87.4284 195.58 87.2168 195.427 87.2611 193.966C87.3005 192.943 87.5858 190.345 87.9942 187.629C88.4026 184.913 90.1639 175.368 91.0102 165.858C91.3551 161.634 91.3551 157.389 91.0102 153.165C97.7309 134.906 100.722 124.048 101.603 117.987C102.493 111.827 102.065 109.623 101.952 106.085L69.2687 106.872C66.6512 123.768 62.1642 143.915 64.3634 151.137Z" fill="#9E6767"/>
<path d="M63.8517 137.657C64.5258 131.448 69.1703 107.581 69.1703 107.581H102.095C102.095 107.581 102.306 112.161 102.247 114.267C102.188 116.373 101.509 120.215 100.334 125.091C99.1577 129.967 94.7985 143.728 93.9375 145.755C93.0765 147.782 91.4775 153.661 91.4775 153.661C92.2844 164.702 90.1836 174.611 88.6092 187.782C88.6092 187.782 88.1516 189.558 83.4875 189.208C78.9512 188.864 78.0361 187.191 78.0361 187.191L77.736 175.831C77.736 175.831 75.276 176.589 73.8 176.244C73.8 176.244 64.0535 152.181 63.5811 150.734C63.1088 149.288 63.1777 143.866 63.8517 137.657Z" fill="#FDED85"/>
<path opacity="0.45" d="M63.8517 137.657C64.5258 131.448 69.1703 107.581 69.1703 107.581H102.095C102.095 107.581 102.306 112.161 102.247 114.267C102.188 116.373 101.509 120.215 100.334 125.091C99.1577 129.967 94.7985 143.728 93.9375 145.755C93.0765 147.782 91.4775 153.661 91.4775 153.661C92.2844 164.702 90.1836 174.611 88.6092 187.782C88.6092 187.782 88.1516 189.558 83.4875 189.208C78.9512 188.864 78.0361 187.191 78.0361 187.191L77.736 175.831C77.736 175.831 75.276 176.589 73.8 176.244C73.8 176.244 64.0535 152.181 63.5811 150.734C63.1088 149.288 63.1777 143.866 63.8517 137.657Z" fill="black"/>
<path opacity="0.2" d="M77.8197 123.138C73.1556 118.936 72.1174 115.59 72.1174 115.59C74.4624 118.232 77.239 120.457 80.3289 122.169C80.3289 122.169 75.9009 145.548 76.2256 150.355C76.5504 155.162 77.7361 175.831 77.7361 175.831C77.7361 176.028 74.5971 153.971 74.5036 152.215C74.2921 147.566 77.8197 123.138 77.8197 123.138Z" fill="black"/>
<path d="M88.068 199.486C88.5255 199.619 88.4665 200.987 88.2599 201.499C87.7478 202.391 87.0227 203.144 86.1492 203.688C84.8691 204.56 83.8014 205.708 83.025 207.048C81.7617 208.981 80.0908 210.613 78.1296 211.831C75.5173 213.313 72.4384 213.744 69.5196 213.036C66.4298 212.16 66.1445 211.403 66.1691 210.237L88.068 199.486Z" fill="#263238"/>
<path d="M78.5233 192.333C77.7115 196.269 76.2994 199.162 73.0276 201.592C70.42 203.531 68.5307 204.515 66.4496 206.241C65.5689 206.979 65.4951 208.549 66.1691 210.241C67.5762 211.368 69.5738 212.018 72.2552 212.013C75.2564 212.013 76.4077 211.476 78.1297 210.3C78.9755 209.722 79.7632 209.063 80.4814 208.332C81.923 206.886 82.9414 205.1 83.9648 203.954C84.9881 202.807 87.2563 201.636 87.9008 200.254C88.255 199.496 88.1074 197.74 87.8713 196.244C87.6548 194.871 88.073 192.461 87.4137 192.308L87.3202 193.292C87.2661 193.513 87.1283 193.627 86.6658 193.784C86.2502 193.874 85.8214 193.886 85.4014 193.818C85.2522 193.764 85.0897 193.759 84.937 193.802C84.7843 193.845 84.649 193.935 84.5503 194.06C84.1075 194.581 83.9894 195.319 83.4187 195.752C83.3818 195.784 83.338 195.808 83.2907 195.821C83.2688 195.833 83.2439 195.839 83.2187 195.838C83.1936 195.837 83.1691 195.83 83.1481 195.816C83.1328 195.792 83.1227 195.765 83.1185 195.737C83.1142 195.709 83.1159 195.681 83.1235 195.654L83.2858 194.178C83.3054 194.031 83.3054 193.882 83.2858 193.735C83.2549 193.598 83.1951 193.469 83.1102 193.357C83.0253 193.245 82.9174 193.152 82.7938 193.085C82.3794 192.844 81.9342 192.66 81.4703 192.539C80.9876 192.408 80.4933 192.324 79.9943 192.288C79.5047 192.226 79.0082 192.241 78.5233 192.333Z" fill="#455A64"/>
<path d="M99.1233 62.912C99.1233 62.912 100.476 64.7718 101.583 68.6045C102.931 74.899 103.623 81.316 103.65 87.7531C103.65 96.4468 102.479 110.533 102.479 110.533C92.3878 115.59 76.1125 112.599 68.949 107.664C69.2393 106.1 69.4853 97.8736 70.0511 92.4468C70.4299 83.1382 70.7448 78.2624 70.8087 74.1198C70.9416 65.8444 75.0596 61.5689 78.1887 61.5049L86.0903 61.6279L99.1233 62.912Z" fill="#FDED85"/>
<path d="M101.613 107.979C100.112 109.214 97.1848 111.586 96.6288 112.781C96.0089 114.149 95.6448 116.225 95.2266 117.003C94.8084 117.78 95.4382 118.173 96.3041 117.893C97.17 117.613 97.6866 116.88 98.3557 115.089C99.0249 113.298 100.885 111.896 100.885 111.896L101.613 107.979Z" fill="#874C4C"/>
<path d="M96.1319 124.082C96.491 124.776 97.3274 124.781 98.0999 124.84C99.0416 124.948 99.9955 124.84 100.89 124.525C101.964 124.215 102.906 123.56 103.571 122.661C104.329 121.568 104.525 120.201 104.958 118.946C105.864 116.314 108.56 114.415 109.003 111.625C109.185 110.474 109.185 109.116 109.495 108.402C109.686 107.979 114.119 100.348 115.704 97.0421C117.219 93.8638 118.356 92.3681 116.978 88.5502C115.6 84.7322 110.912 71.2957 107.591 66.6266C105.711 63.9797 102.725 63.222 99.1035 62.912C96.3483 70.0854 99.5513 77.4998 99.5513 77.4998L106.862 91.5612C106.862 91.5612 104.028 101.244 102.257 106.626C101.765 108.102 100.781 109.047 99.6546 110.705C99.1626 111.423 98.0507 112.673 97.6571 113.455C97.1651 114.439 97.1651 115.089 96.9191 116.481C96.5353 118.7 95.94 123.753 96.1319 124.082Z" fill="#9E6767"/>
<path d="M98.7346 62.8727C100.639 62.9465 103.374 63.2712 105.008 64.0978C106.641 64.9243 107.778 65.9428 109.657 69.7115C111.536 73.4802 114.287 80.8012 114.287 80.8012C114.287 80.8012 113.376 86.3263 104.639 87.758L98.7346 76.8701C98.7346 76.8701 96.1024 70.0854 98.7346 62.8727Z" fill="#455A64"/>
<path d="M76.0337 45.2886C76.2918 45.7554 76.5155 46.2405 76.7028 46.74C76.9939 47.3924 77.3658 48.0057 77.8098 48.5653C78.9414 49.8691 80.5306 50.8236 81.982 51.7486C82.8577 52.3094 83.8614 52.8359 84.934 52.6834C86.0065 52.5308 87.2021 52.7621 88.3091 52.8605L92.1811 53.2098L91.9646 57.2786C91.9646 57.2786 92.4566 56.2012 93.1012 54.9121C93.662 53.8051 96.0138 48.1914 96.0236 48.1668C97.1897 45.387 98.5722 41.6773 97.1798 38.7548C96.8633 38.0352 96.3346 37.4293 95.6645 37.0181C95.7993 36.5688 95.8428 36.097 95.7924 35.6306C95.715 34.9685 95.49 34.3322 95.1341 33.7685C94.7782 33.2048 94.3004 32.7282 93.7358 32.3736C92.6339 31.6289 91.3917 31.1166 90.0852 30.8681C88.3524 30.4695 86.5792 30.273 84.8011 30.2826C83.059 30.3358 81.3243 30.5349 79.6154 30.8779C78.6622 31.054 77.6965 31.1544 76.7274 31.178C76.3099 31.2054 75.8907 31.1856 75.4777 31.119C74.9644 30.9656 74.4601 30.7832 73.9673 30.5729C73.9244 30.5549 73.8785 30.5456 73.832 30.5456C73.7855 30.5456 73.7395 30.5549 73.6967 30.5729C73.6576 30.5988 73.6246 30.6329 73.6 30.6729C73.5754 30.7128 73.5597 30.7576 73.554 30.8041C73.426 31.4184 73.4314 32.0529 73.5698 32.6649C73.7081 33.2768 73.9762 33.852 74.356 34.3514C74.1347 34.3212 73.9191 34.2582 73.7164 34.1645C73.4862 34.0579 73.2642 33.9346 73.0522 33.7955C72.6911 33.5534 72.3748 33.2504 72.1174 32.9C72.0819 32.8451 72.0277 32.8049 71.9648 32.7869C71.8664 32.7869 71.7877 32.8558 71.7287 32.9345C71.4632 33.3294 71.2823 33.775 71.1977 34.2433C71.113 34.7116 71.1263 35.1924 71.2367 35.6552C71.4537 36.5843 71.8926 37.447 72.5159 38.1694C72.2118 38.6606 72.0362 39.2205 72.0053 39.7974C71.9743 40.3743 72.089 40.9497 72.3388 41.4707C72.5576 41.9327 72.8519 42.3551 73.2096 42.7204C73.6524 43.173 74.1936 43.542 74.6413 43.9651C75.1547 44.3513 75.6219 44.7954 76.0337 45.2886Z" fill="#37474F"/>
<path d="M87.8269 38.5088C87.8126 39.2436 87.9071 39.9764 88.1074 40.6835C88.3408 41.3046 88.7166 41.8623 89.2045 42.312C89.7565 42.7803 90.2668 43.2955 90.7297 43.852C91.2294 44.7181 91.5224 45.6879 91.5858 46.6859C91.5886 46.9798 91.6573 47.2694 91.7867 47.5333C91.9161 47.7973 92.103 48.0288 92.3336 48.2111C93.3865 48.8654 94.0163 47.601 94.5772 46.9811C95.3004 46.312 97.4504 45.5051 98.4443 47.7781C99.4726 50.1397 97.5734 53.2688 95.8465 53.751C92.8699 54.5825 92.2205 52.5554 92.2205 52.5554L91.6498 63.1826C89.972 66.3659 86.0262 67.3794 83.4334 66.8726C81.1948 66.4348 79.9648 64.8653 82.0705 62.5922L82.1837 59.3549C82.1837 59.3549 79.4974 59.6747 78.2034 59.4287C76.0435 59.0252 74.9759 57.1901 74.3904 54.8236C73.4605 51.0204 73.0325 47.0204 74.1887 38.4547C74.7151 38.1644 76.8455 39.8225 80.0927 40.0439C82.7616 40.232 85.4322 39.702 87.8269 38.5088Z" fill="#9E6767"/>
<path d="M82.164 59.345C82.164 59.345 87.0348 58.5283 88.7568 57.6821C89.7673 57.1954 90.6075 56.4152 91.1676 55.4435C90.8801 56.4248 90.3982 57.3383 89.7507 58.1298C88.4616 59.6698 82.1198 60.6341 82.1198 60.6341L82.164 59.345Z" fill="#874C4C"/>
<path d="M84.6979 42.312L86.966 43.0057C87.0527 42.6959 87.0161 42.3645 86.8639 42.0811C86.7116 41.7976 86.4555 41.5842 86.1493 41.4854C85.9997 41.4416 85.8428 41.4283 85.688 41.4464C85.5332 41.4645 85.3836 41.5136 85.2482 41.5907C85.1127 41.6679 84.9942 41.7715 84.8997 41.8954C84.8051 42.0193 84.7365 42.161 84.6979 42.312Z" fill="#263238"/>
<path d="M83.9106 53.0573L80.5699 54.1889C80.635 54.4122 80.7442 54.6201 80.8911 54.8004C81.0381 54.9807 81.2197 55.1296 81.4253 55.2383C81.6308 55.3471 81.8562 55.4135 82.0879 55.4335C82.3196 55.4535 82.5529 55.4268 82.7741 55.3549C83.2236 55.1929 83.593 54.8631 83.8048 54.4349C84.0167 54.0066 84.0546 53.5129 83.9106 53.0573Z" fill="#874C4C"/>
<path d="M83.64 53.874C83.204 53.8743 82.7804 54.0195 82.4357 54.2866C82.0911 54.5538 81.845 54.9278 81.736 55.35C82.0731 55.4608 82.4369 55.4608 82.7741 55.35C83.0853 55.2399 83.3606 55.0471 83.5704 54.7922C83.7802 54.5373 83.9165 54.2301 83.9647 53.9035C83.8576 53.884 83.7489 53.8741 83.64 53.874Z" fill="#F28F8F"/>
<path d="M74.5725 42.6712L76.8799 42.371C76.8624 42.2217 76.8152 42.0773 76.741 41.9464C76.6668 41.8156 76.5671 41.701 76.4479 41.6092C76.3287 41.5175 76.1923 41.4506 76.0468 41.4125C75.9013 41.3743 75.7496 41.3657 75.6007 41.387C75.2965 41.4265 75.0194 41.5823 74.8277 41.8218C74.6359 42.0612 74.5445 42.3657 74.5725 42.6712Z" fill="#263238"/>
<path d="M88.7568 43.6552L96.3681 46.248C95.9416 46.2529 95.5219 46.3557 95.1415 46.5485C94.761 46.7413 94.4299 47.0189 94.1738 47.3599L88.7864 45.3132L88.7568 43.6552Z" fill="#263238"/>
<path d="M75.709 46.6268C75.7003 46.7493 75.7162 46.8722 75.7558 46.9884C75.7954 47.1046 75.8578 47.2117 75.9394 47.3034C76.021 47.3951 76.1202 47.4696 76.231 47.5224C76.3418 47.5751 76.4621 47.6052 76.5847 47.6108C76.7068 47.6121 76.828 47.5894 76.9413 47.5438C77.0547 47.4983 77.1579 47.4309 77.2452 47.3455C77.3324 47.26 77.402 47.1582 77.4499 47.0459C77.4978 46.9336 77.5232 46.8129 77.5245 46.6908C77.5331 46.5683 77.5172 46.4454 77.4776 46.3292C77.438 46.213 77.3756 46.1059 77.294 46.0142C77.2124 45.9225 77.1132 45.8481 77.0024 45.7953C76.8916 45.7425 76.7713 45.7124 76.6487 45.7068C76.5266 45.7055 76.4054 45.7283 76.2921 45.7738C76.1788 45.8193 76.0755 45.8867 75.9883 45.9722C75.901 46.0576 75.8314 46.1594 75.7835 46.2717C75.7356 46.3841 75.7102 46.5047 75.709 46.6268Z" fill="#263238"/>
<path d="M84.4026 46.6268C84.4036 46.8054 84.4572 46.9796 84.5565 47.128C84.6559 47.2763 84.7967 47.3922 84.9614 47.4611C85.1261 47.53 85.3074 47.549 85.4828 47.5156C85.6582 47.4823 85.8199 47.3981 85.9478 47.2735C86.0757 47.149 86.1641 46.9895 86.2021 46.8151C86.2401 46.6407 86.2259 46.4589 86.1614 46.2924C86.0969 46.126 85.9848 45.9822 85.8392 45.8789C85.6935 45.7757 85.5207 45.7175 85.3423 45.7117C85.0965 45.7091 84.8597 45.8039 84.6836 45.9754C84.5075 46.1468 84.4065 46.3811 84.4026 46.6268Z" fill="#263238"/>
<path d="M71.7091 45.2788C71.4439 44.977 71.2728 44.6041 71.2171 44.2062C71.2052 44.0207 71.2539 43.8364 71.356 43.6811C71.4581 43.5257 71.6079 43.4078 71.7829 43.3452L72.2749 43.296C73.8788 43.1484 75.9797 43.1336 77.249 43.5469C78.848 44.0684 79.3548 44.649 80.2945 44.649C81.2342 44.649 81.8197 44.1226 83.5023 43.665C84.8455 43.3009 87.089 43.3895 88.811 43.601L89.3473 43.6699C89.5345 43.7341 89.6955 43.8578 89.8057 44.0222C89.9159 44.1866 89.9692 44.3826 89.9574 44.5801C89.8994 44.9656 89.7281 45.3253 89.4654 45.6133C89.3842 45.7411 89.3274 45.8829 89.2981 46.0315C89.1308 46.7548 89.0423 48.1422 88.7028 48.9048C88.5441 49.2827 88.3191 49.6293 88.0386 49.9282C87.9349 50.0384 87.8213 50.1389 87.6991 50.2283C87.6366 50.277 87.5709 50.3214 87.5023 50.3611C87.3159 50.475 87.118 50.569 86.9119 50.6416L86.8086 50.6711C86.757 50.6887 86.7044 50.7035 86.6511 50.7154L86.4888 50.7547C86.3155 50.793 86.1395 50.8177 85.9623 50.8285C85.887 50.8336 85.8114 50.8336 85.736 50.8285H85.4556C83.2563 50.799 82.3609 49.7215 81.7803 48.6194C81.1998 47.5174 81.2883 45.9577 80.3043 45.9577H80.2059H80.1174C79.3794 46.125 79.4975 47.542 79.0448 48.5555C78.8759 48.9571 78.6415 49.3278 78.3511 49.6526C78.2992 49.7136 78.2433 49.7711 78.1838 49.8248C78.1578 49.8548 78.1281 49.8813 78.0953 49.9036L78.0018 49.9774L77.9181 50.0462L77.8247 50.1102L77.7509 50.1545L77.7017 50.1889C77.4306 50.3427 77.1391 50.457 76.8357 50.5284H76.757C76.4076 50.6006 76.0508 50.6304 75.6943 50.617C75.0249 50.6448 74.3638 50.4612 73.8047 50.092C73.2457 49.7228 72.8172 49.1869 72.5799 48.5604C72.2306 47.783 72.0781 46.3956 71.901 45.6625C71.866 45.522 71.8005 45.391 71.7091 45.2788Z" fill="#263238"/>
<path d="M80.57 45.9823L80.3978 52.3094L76.8701 51.2861L80.1616 45.9282C80.3001 45.915 80.4397 45.9335 80.57 45.9823Z" fill="#874C4C"/>
<path d="M129.898 46.7843C139.965 46.7843 148.126 39.6363 148.126 30.8189C148.126 22.0014 139.965 14.8535 129.898 14.8535C119.83 14.8535 111.669 22.0014 111.669 30.8189C111.669 39.6363 119.83 46.7843 129.898 46.7843Z" fill="#FDED85"/>
<path d="M115.349 40.0537C115.246 42.1939 113.435 46.0217 110.164 47.4337C110.12 47.4523 110.083 47.4842 110.059 47.5248C110.034 47.5654 110.023 47.6128 110.027 47.6602C110.03 47.7075 110.049 47.7524 110.08 47.7886C110.111 47.8248 110.152 47.8504 110.198 47.8618C112.068 48.2762 114.019 48.1358 115.811 47.4576C117.602 46.7794 119.157 45.5929 120.284 44.0438L115.349 40.0537Z" fill="#FDED85"/>
<path d="M117.539 29.5544C117.58 28.8547 117.747 28.1681 118.031 27.5274C118.299 26.9005 118.698 26.3385 119.202 25.8792C119.734 25.3922 120.355 25.0129 121.032 24.7624C122.654 24.2113 124.413 24.2113 126.036 24.7624C126.719 25.0118 127.347 25.391 127.886 25.8792C128.387 26.3479 128.783 26.9182 129.047 27.552C129.331 28.1927 129.498 28.8793 129.539 29.579C129.563 30.1301 129.573 30.7057 129.573 31.306C129.573 31.9062 129.573 32.472 129.539 32.9935C129.498 33.6932 129.331 34.3798 129.047 35.0206C128.776 35.6486 128.377 36.2133 127.876 36.6786C127.34 37.1715 126.711 37.5513 126.026 37.7954C124.401 38.3332 122.647 38.3332 121.022 37.7954C120.339 37.5517 119.713 37.1717 119.182 36.6786C118.679 36.2148 118.28 35.6497 118.011 35.0206C117.727 34.3798 117.56 33.6932 117.519 32.9935C117.494 32.472 117.48 31.9062 117.48 31.306C117.48 30.7057 117.514 30.1055 117.539 29.5544ZM125.952 32.8754C125.952 32.6442 125.977 32.3834 125.991 32.1079C126.006 31.8324 125.991 31.5372 125.991 31.242C125.991 30.9468 125.991 30.6614 125.991 30.3859C125.991 30.1104 125.962 29.8939 125.952 29.6479C125.931 29.3457 125.863 29.0486 125.75 28.7672C125.644 28.5044 125.487 28.2652 125.288 28.0637C125.078 27.8575 124.826 27.6982 124.55 27.5963C123.878 27.3669 123.15 27.3669 122.478 27.5963C122.201 27.6993 121.948 27.8585 121.736 28.0637C121.538 28.2654 121.382 28.5046 121.278 28.7672C121.165 29.0486 121.097 29.3457 121.076 29.6479C121.046 29.8928 121.03 30.1392 121.027 30.3859C121.027 30.6614 121.027 30.9468 121.027 31.242C121.027 31.5372 121.027 31.8226 121.027 32.1079C121.03 32.3645 121.046 32.6207 121.076 32.8754C121.106 33.4668 121.339 34.0298 121.736 34.4695C121.971 34.6925 122.251 34.8638 122.557 34.9722C122.863 35.0807 123.188 35.124 123.512 35.0993C123.834 35.125 124.158 35.0822 124.462 34.9737C124.767 34.8651 125.045 34.6933 125.278 34.4695C125.671 34.0263 125.908 33.4663 125.952 32.8754Z" fill="#FAFAFA"/>
<path d="M143.172 37.3477C143.213 37.4104 143.232 37.4847 143.226 37.5593C143.227 37.6143 143.216 37.6688 143.195 37.7196C143.174 37.7704 143.143 37.8163 143.103 37.8545C143.065 37.8947 143.019 37.9267 142.969 37.9487C142.918 37.9707 142.863 37.9822 142.808 37.9824H139.728C139.572 37.9881 139.418 37.947 139.285 37.8643C139.157 37.771 139.041 37.6619 138.941 37.5396L135.3 32.964V37.456C135.298 37.5886 135.246 37.7157 135.155 37.8122C135.064 37.9087 134.94 37.9677 134.808 37.9775H132.289C132.221 37.9779 132.153 37.9642 132.09 37.9371C132.028 37.91 131.971 37.8701 131.925 37.82C131.876 37.7732 131.837 37.7166 131.81 37.654C131.784 37.5913 131.771 37.5239 131.772 37.456V25.0625C131.771 24.9945 131.784 24.9271 131.81 24.8645C131.837 24.8018 131.876 24.7453 131.925 24.6984C131.971 24.6483 132.028 24.6085 132.09 24.5814C132.153 24.5543 132.221 24.5405 132.289 24.541H134.808C134.94 24.5508 135.064 24.6097 135.155 24.7062C135.246 24.8027 135.298 24.9298 135.3 25.0625V29.1116L138.68 24.9641C138.757 24.8714 138.84 24.7827 138.926 24.6984C139.072 24.5795 139.26 24.5229 139.447 24.541H142.439C142.495 24.5405 142.551 24.5516 142.602 24.5736C142.654 24.5957 142.7 24.6281 142.739 24.6689C142.779 24.7071 142.81 24.753 142.831 24.8038C142.852 24.8545 142.863 24.9091 142.862 24.9641C142.867 25.0393 142.846 25.1139 142.803 25.1756L138.08 30.996L143.172 37.3477Z" fill="#FAFAFA"/>
<path d="M176.933 45.9134L174.173 46.7449L172.18 40.0882L174.931 39.2616L176.933 45.9134Z" fill="#E0E0E0"/>
<path d="M185.548 40.0045C185.571 40.2745 185.507 40.5449 185.367 40.7765C185.226 41.0082 185.016 41.1893 184.766 41.2936C184.945 41.497 185.077 41.7371 185.154 41.9971C185.312 42.4891 184.894 43.2025 184.062 43.4731L177.75 45.3722L175.895 39.1878C175.895 39.1878 176.963 36.4572 177.017 36.0439C177.071 35.6306 176.441 34.1153 176.352 33.8299C176.264 33.5446 177.287 33.1706 178.094 33.4954C178.282 33.5788 178.449 33.7012 178.586 33.8545C178.876 34.1636 179.12 34.5133 179.309 34.8926C179.577 35.4333 179.709 36.0312 179.693 36.6343L183.516 35.4683C183.78 35.3728 184.069 35.3728 184.333 35.4683C184.505 35.5365 184.658 35.6483 184.774 35.7926C184.891 35.937 184.969 36.1091 184.999 36.2923C185.03 36.4755 185.013 36.6635 184.95 36.838C184.886 37.0126 184.779 37.1679 184.638 37.2887C184.865 37.2722 185.092 37.3326 185.281 37.4601C185.47 37.5877 185.611 37.7751 185.681 37.9922C185.739 38.2447 185.708 38.5096 185.593 38.7419C185.479 38.9741 185.287 39.1595 185.051 39.2665C185.306 39.4387 185.484 39.7033 185.548 40.0045Z" fill="#E0E0E0"/>
<path d="M216.48 114.936L212.943 114.085L215.004 105.554L218.541 106.405L216.48 114.936Z" fill="#E0E0E0"/>
<path d="M229.651 113.977C229.504 114.286 229.263 114.54 228.962 114.704C228.662 114.867 228.317 114.931 227.978 114.887C228.042 115.223 228.033 115.568 227.953 115.9C227.796 116.565 226.896 117.052 225.833 116.791L217.735 114.823L219.644 106.897C219.644 106.897 222.551 104.599 222.871 104.181C223.191 103.763 223.466 101.721 223.555 101.342C223.644 100.963 224.997 101.219 225.671 102.09C225.834 102.302 225.948 102.547 226.005 102.808C226.125 103.329 226.168 103.864 226.133 104.397C226.08 105.159 225.843 105.897 225.444 106.548L230.335 107.728C230.682 107.802 230.992 107.995 231.21 108.274C231.332 108.434 231.418 108.617 231.463 108.812C231.508 109.007 231.51 109.21 231.471 109.406C231.406 109.665 231.269 109.9 231.077 110.085C230.885 110.27 230.645 110.398 230.384 110.454C230.643 110.581 230.851 110.791 230.976 111.051C231.101 111.31 231.135 111.604 231.073 111.886C230.973 112.197 230.77 112.464 230.496 112.643C230.223 112.822 229.897 112.902 229.572 112.87C229.741 113.214 229.77 113.612 229.651 113.977Z" fill="#E0E0E0"/>
<path d="M37.7954 109.834L41.6576 110.995L44.4522 101.677L40.5949 100.516L37.7954 109.834Z" fill="#E0E0E0"/>
<path d="M25.7266 101.554C25.6944 101.932 25.7834 102.311 25.9806 102.636C26.1778 102.96 26.4731 103.214 26.8238 103.359C26.5758 103.645 26.3914 103.981 26.2826 104.343C26.0612 105.067 26.6516 106.036 27.8078 106.38L36.6638 109.042L39.2517 100.368C39.2517 100.368 37.7511 96.5402 37.6773 95.94C37.6035 95.3398 38.4891 93.2438 38.6072 92.8404C38.7056 92.5157 37.2985 91.9204 36.1472 92.3779C35.8735 92.4852 35.6278 92.6534 35.4289 92.8699C35.0201 93.3092 34.6785 93.8066 34.4154 94.3459C34.0384 95.11 33.8526 95.9542 33.8742 96.8059L28.5606 95.202C28.1859 95.0788 27.7796 95.0927 27.4142 95.2414C27.1721 95.3367 26.9587 95.4931 26.7951 95.6954C26.6314 95.8977 26.523 96.139 26.4803 96.3957C26.4377 96.6524 26.4624 96.9158 26.5519 97.1602C26.6414 97.4045 26.7927 97.6215 26.9911 97.7899C26.67 97.7624 26.349 97.8447 26.0808 98.0235C25.8126 98.2023 25.6132 98.4669 25.5151 98.7739C25.4333 99.1282 25.4763 99.4998 25.6367 99.8261C25.7971 100.152 26.0653 100.413 26.3958 100.565C26.0587 100.801 25.8204 101.153 25.7266 101.554Z" fill="#E0E0E0"/>
</svg>
